<?xml version="1.0" encoding="utf-8"?>
<!-- Generator: Adobe Illustrator 27.3.1, SVG Export Plug-In . SVG Version: 6.00 Build 0)  -->
<svg version="1.1" id="Layer_1" xmlns="http://www.w3.org/2000/svg" xmlns:xlink="http://www.w3.org/1999/xlink" x="0px" y="0px"
	 viewBox="0 0 24 24" style="enable-background:new 0 0 24 24;" xml:space="preserve">
<style type="text/css">
	.st0{fill:none;stroke:#4B8790;stroke-width:1.5;stroke-linecap:round;stroke-linejoin:round;}
</style>
<path class="st0" d="M8.7,14.3c0,1.3,1,2.3,2.2,2.3h2.5c1.1,0,1.9-0.9,1.9-2c0-1.2-0.5-1.6-1.3-1.9l-4-1.4C9.2,11,8.7,10.6,8.7,9.4
	c0-1.1,0.9-2,1.9-2h2.5c1.2,0,2.2,1,2.2,2.3"/>
<path class="st0" d="M12,6v12"/>
<path class="st0" d="M15,22H9c-5,0-7-2-7-7V9c0-5,2-7,7-7h6c5,0,7,2,7,7v6C22,20,20,22,15,22z"/>
</svg>
