<?xml version="1.0" encoding="utf-8"?>
<!-- Generator: Adobe Illustrator 27.3.1, SVG Export Plug-In . SVG Version: 6.00 Build 0)  -->
<svg version="1.1" id="Layer_1" xmlns="http://www.w3.org/2000/svg" xmlns:xlink="http://www.w3.org/1999/xlink" x="0px" y="0px"
	 viewBox="0 0 24 24" style="enable-background:new 0 0 24 24;" xml:space="preserve">
<style type="text/css">
	.st0{fill:none;stroke:#4B8790;stroke-width:1.5;stroke-linecap:round;stroke-linejoin:round;}
</style>
<path class="st0" d="M14.6,2H9.5C7.7,2,7.3,2.9,7,4L6.2,7.9h11.6L17,4C16.8,2.9,16.4,2,14.6,2z"/>
<path class="st0" d="M19.2,14.3c0.1,0.9-0.6,1.6-1.5,1.6h-1.4c-0.8,0-0.9-0.3-1-0.8l-0.2-0.4c-0.2-0.6-0.3-1-1.4-1h-3.7
	c-1,0-1.2,0.4-1.4,1l-0.1,0.4c-0.1,0.4-0.2,0.8-1,0.8H6.2c-0.9,0-1.5-0.7-1.5-1.6l0.4-4.4c0.1-1.1,0.3-2,2.2-2h9.2
	c1.9,0,2.1,0.9,2.2,2L19.2,14.3z"/>
<path class="st0" d="M6.2,5.8H5.5"/>
<path class="st0" d="M18.5,5.8h-0.7"/>
<path class="st0" d="M7.7,10.8h2.2"/>
<path class="st0" d="M14.2,10.8h2.2"/>
<path class="st0" d="M12,17v1"/>
<path class="st0" d="M12,21v1"/>
<path class="st0" d="M3,18l-1,4"/>
<path class="st0" d="M21,18l1,4"/>
</svg>
