<?xml version="1.0" encoding="utf-8"?>
<!-- Generator: Adobe Illustrator 27.3.1, SVG Export Plug-In . SVG Version: 6.00 Build 0)  -->
<svg version="1.1" id="Layer_1" xmlns="http://www.w3.org/2000/svg" xmlns:xlink="http://www.w3.org/1999/xlink" x="0px" y="0px"
	 viewBox="0 0 24 24" style="enable-background:new 0 0 24 24;" xml:space="preserve">
<style type="text/css">
	.st0{fill:none;stroke:#0071FF;stroke-width:1.5;stroke-linecap:round;stroke-linejoin:round;}
</style>
<path class="st0" d="M15.6,12c0,2-1.6,3.6-3.6,3.6S8.4,14,8.4,12S10,8.4,12,8.4S15.6,10,15.6,12z"/>
<path class="st0" d="M12,20.3c3.5,0,6.8-2.1,9.1-5.7c0.9-1.4,0.9-3.8,0-5.2c-2.3-3.6-5.6-5.7-9.1-5.7c-3.5,0-6.8,2.1-9.1,5.7
	c-0.9,1.4-0.9,3.8,0,5.2C5.2,18.2,8.5,20.3,12,20.3z"/>
</svg>
