<?xml version="1.0" encoding="utf-8"?>
<!-- Generator: Adobe Illustrator 27.3.1, SVG Export Plug-In . SVG Version: 6.00 Build 0)  -->
<svg version="1.1" id="Layer_1" xmlns="http://www.w3.org/2000/svg" xmlns:xlink="http://www.w3.org/1999/xlink" x="0px" y="0px"
	 viewBox="0 0 24 24" style="enable-background:new 0 0 24 24;" xml:space="preserve">
<style type="text/css">
	.st0{fill:none;stroke:#4B8790;stroke-width:1.5;stroke-linecap:round;stroke-linejoin:round;stroke-miterlimit:10;}
</style>
<path class="st0" d="M5.4,2.1h13.2c1.1,0,2,0.9,2,2v2.2c0,0.8-0.5,1.8-1,2.3l-4.3,3.8c-0.6,0.5-1,1.5-1,2.3V19
	c0,0.6-0.4,1.4-0.9,1.7L12,21.6c-1.3,0.8-3.1-0.1-3.1-1.7v-5.3c0-0.7-0.4-1.6-0.8-2.1l-3.8-4C3.8,8,3.4,7.1,3.4,6.5V4.2
	C3.4,3,4.3,2.1,5.4,2.1z"/>
</svg>
