<?xml version="1.0" encoding="utf-8"?>
<!-- Generator: Adobe Illustrator 27.3.1, SVG Export Plug-In . SVG Version: 6.00 Build 0)  -->
<svg version="1.1" id="Layer_1" xmlns="http://www.w3.org/2000/svg" xmlns:xlink="http://www.w3.org/1999/xlink" x="0px" y="0px"
	 viewBox="0 0 24 24" style="enable-background:new 0 0 24 24;" xml:space="preserve">
<style type="text/css">
	.st0{fill:none;stroke:#4B8790;stroke-width:1.5;stroke-linecap:round;stroke-linejoin:round;}
</style>
<path class="st0" d="M15,2v10c0,1.1-0.9,2-2,2H2V6c0-2.2,1.8-4,4-4H15z"/>
<path class="st0" d="M22,14v3c0,1.7-1.3,3-3,3h-1c0-1.1-0.9-2-2-2s-2,0.9-2,2h-4c0-1.1-0.9-2-2-2s-2,0.9-2,2H5c-1.7,0-3-1.3-3-3v-3
	h11c1.1,0,2-0.9,2-2V5h1.8c0.7,0,1.4,0.4,1.7,1l1.7,3H19c-0.5,0-1,0.4-1,1v3c0,0.6,0.5,1,1,1H22z"/>
<path class="st0" d="M8,22c1.1,0,2-0.9,2-2s-0.9-2-2-2s-2,0.9-2,2S6.9,22,8,22z"/>
<path class="st0" d="M16,22c1.1,0,2-0.9,2-2s-0.9-2-2-2s-2,0.9-2,2S14.9,22,16,22z"/>
<path class="st0" d="M22,12v2h-3c-0.5,0-1-0.4-1-1v-3c0-0.6,0.5-1,1-1h1.3L22,12z"/>
</svg>
