<?xml version="1.0" encoding="utf-8"?>
<!-- Generator: Adobe Illustrator 27.3.1, SVG Export Plug-In . SVG Version: 6.00 Build 0)  -->
<svg version="1.1" id="Layer_1" xmlns="http://www.w3.org/2000/svg" xmlns:xlink="http://www.w3.org/1999/xlink" x="0px" y="0px"
	 viewBox="0 0 24 24" style="enable-background:new 0 0 24 24;" xml:space="preserve">
<style type="text/css">
	.st0{fill:none;stroke:#4B8790;stroke-width:1.5;stroke-linecap:round;stroke-linejoin:round;}
</style>
<path class="st0" d="M12,14h1c1.1,0,2-0.9,2-2V2H6C4.5,2,3.2,2.8,2.5,4"/>
<path class="st0" d="M2,17c0,1.7,1.3,3,3,3h1c0-1.1,0.9-2,2-2s2,0.9,2,2h4c0-1.1,0.9-2,2-2s2,0.9,2,2h1c1.7,0,3-1.3,3-3v-3h-3
	c-0.5,0-1-0.4-1-1v-3c0-0.6,0.5-1,1-1h1.3l-1.7-3c-0.4-0.6-1-1-1.7-1H15v7c0,1.1-0.9,2-2,2h-1"/>
<path class="st0" d="M8,22c1.1,0,2-0.9,2-2s-0.9-2-2-2s-2,0.9-2,2S6.9,22,8,22z"/>
<path class="st0" d="M16,22c1.1,0,2-0.9,2-2s-0.9-2-2-2s-2,0.9-2,2S14.9,22,16,22z"/>
<path class="st0" d="M22,12v2h-3c-0.5,0-1-0.4-1-1v-3c0-0.6,0.5-1,1-1h1.3L22,12z"/>
<path class="st0" d="M2,8h6"/>
<path class="st0" d="M2,11h4"/>
<path class="st0" d="M2,14h2"/>
</svg>
