<?xml version="1.0" encoding="utf-8"?>
<!-- Generator: Adobe Illustrator 27.3.1, SVG Export Plug-In . SVG Version: 6.00 Build 0)  -->
<svg version="1.1" id="Layer_1" xmlns="http://www.w3.org/2000/svg" xmlns:xlink="http://www.w3.org/1999/xlink" x="0px" y="0px"
	 viewBox="0 0 24 24" style="enable-background:new 0 0 24 24;" xml:space="preserve">
<style type="text/css">
	.st0{fill:#FFFFFF;stroke:#353535;stroke-width:1.5;stroke-linecap:round;stroke-linejoin:round;}
</style>
<path class="st0" d="M15.5,2.8h-7c-2.5,0-3,1.2-3.4,2.8L4,11h16l-1.1-5.4C18.5,4.1,18,2.8,15.5,2.8z"/>
<path class="st0" d="M22,19.8c0.1,1.2-0.8,2.2-2,2.2h-1.9c-1.1,0-1.2-0.5-1.4-1l-0.2-0.6C16.2,19.5,16,19,14.6,19H9.4
	c-1.4,0-1.6,0.6-1.9,1.4L7.3,21c-0.2,0.6-0.3,1-1.4,1H4c-1.2,0-2.1-1-2-2.2l0.6-6.1C2.7,12.2,3,11,5.6,11h12.8
	c2.6,0,2.9,1.2,3.1,2.7L22,19.8z"/>
<path class="st0" d="M4,8H3"/>
<path class="st0" d="M21,8h-1"/>
<path class="st0" d="M12,3v2"/>
<path class="st0" d="M10.5,5h3"/>
<path class="st0" d="M6,15h3"/>
<path class="st0" d="M15,15h3"/>
</svg>
