<?xml version="1.0" encoding="utf-8"?>
<!-- Generator: Adobe Illustrator 27.3.1, SVG Export Plug-In . SVG Version: 6.00 Build 0)  -->
<svg version="1.1" id="Layer_1" xmlns="http://www.w3.org/2000/svg" xmlns:xlink="http://www.w3.org/1999/xlink" x="0px" y="0px"
	 viewBox="0 0 24 24" style="enable-background:new 0 0 24 24;" xml:space="preserve">
<style type="text/css">
	.st0{fill:none;stroke:#5A57FF;stroke-width:0.5;stroke-linecap:round;stroke-linejoin:round;}
</style>
<path class="st0" d="M9,11v-1c0-1.7,0.5-3,3-3s3,1.3,3,3v1"/>
<path class="st0" d="M12,14.6c0.3,0,0.6-0.3,0.6-0.6c0-0.3-0.3-0.6-0.6-0.6s-0.6,0.3-0.6,0.6C11.4,14.3,11.7,14.6,12,14.6z"/>
<path class="st0" d="M14.5,17h-5c-2,0-2.5-0.5-2.5-2.5v-1c0-2,0.5-2.5,2.5-2.5h5c2,0,2.5,0.5,2.5,2.5v1C17,16.5,16.5,17,14.5,17z"/>
<path class="st0" d="M12,22c5.5,0,10-4.5,10-10c0-5.5-4.5-10-10-10C6.5,2,2,6.5,2,12C2,17.5,6.5,22,12,22z"/>
</svg>
