<?xml version="1.0" encoding="utf-8"?>
<!-- Generator: Adobe Illustrator 27.3.1, SVG Export Plug-In . SVG Version: 6.00 Build 0)  -->
<svg version="1.1" id="Layer_1" xmlns="http://www.w3.org/2000/svg" xmlns:xlink="http://www.w3.org/1999/xlink" x="0px" y="0px"
	 viewBox="0 0 24 24" style="enable-background:new 0 0 24 24;" xml:space="preserve">
<style type="text/css">
	.st0{fill:none;stroke:#FFFFFF;stroke-width:1.5;stroke-linecap:round;stroke-linejoin:round;}
</style>
<path class="st0" d="M18,7.2c-0.1,0-0.1,0-0.2,0c-1.4,0-2.5-1.2-2.5-2.6c0-1.4,1.1-2.6,2.6-2.6s2.6,1.2,2.6,2.6
	C20.5,6,19.4,7.1,18,7.2z"/>
<path class="st0" d="M17,14.4c1.4,0.2,2.9,0,3.9-0.7c1.4-0.9,1.4-2.5,0-3.4c-1.1-0.7-2.6-0.9-4-0.7"/>
<path class="st0" d="M6,7.2c0.1,0,0.1,0,0.2,0c1.4,0,2.5-1.2,2.5-2.6C8.6,3.2,7.5,2,6.1,2S3.5,3.2,3.5,4.6C3.5,6,4.6,7.1,6,7.2z"/>
<path class="st0" d="M7,14.4c-1.4,0.2-2.9,0-3.9-0.7c-1.4-0.9-1.4-2.5,0-3.4c1.1-0.7,2.6-0.9,4-0.7"/>
<path class="st0" d="M12,14.6c-0.1,0-0.1,0-0.2,0c-1.4-0.1-2.5-1.2-2.5-2.6c0-1.4,1.2-2.6,2.6-2.6s2.6,1.2,2.6,2.6
	C14.5,13.4,13.4,14.6,12,14.6z"/>
<path class="st0" d="M9.1,17.8c-1.4,0.9-1.4,2.5,0,3.4c1.6,1.1,4.2,1.1,5.8,0c1.4-0.9,1.4-2.5,0-3.4C13.3,16.7,10.7,16.7,9.1,17.8z"
	/>
</svg>
