<?xml version="1.0" encoding="utf-8"?>
<!-- Generator: Adobe Illustrator 27.3.1, SVG Export Plug-In . SVG Version: 6.00 Build 0)  -->
<svg version="1.1" id="Layer_1" xmlns="http://www.w3.org/2000/svg" xmlns:xlink="http://www.w3.org/1999/xlink" x="0px" y="0px"
	 viewBox="0 0 24 24" style="enable-background:new 0 0 24 24;" xml:space="preserve">
<style type="text/css">
	.st0{fill:none;stroke:#4B8790;stroke-width:1.5;stroke-linecap:round;stroke-linejoin:round;stroke-miterlimit:10;}
</style>
<path class="st0" d="M12,15c1.7,0,3-1.3,3-3s-1.3-3-3-3s-3,1.3-3,3S10.3,15,12,15z"/>
<path class="st0" d="M2,12.9v-1.8c0-1,0.8-1.9,1.9-1.9c1.8,0,2.5-1.3,1.6-2.9C5,5.5,5.3,4.3,6.2,3.8l1.7-1c0.8-0.5,1.8-0.2,2.3,0.6
	l0.1,0.2c0.9,1.6,2.4,1.6,3.3,0l0.1-0.2c0.5-0.8,1.5-1.1,2.3-0.6l1.7,1c0.9,0.5,1.2,1.7,0.7,2.6c-0.9,1.6-0.2,2.9,1.6,2.9
	c1,0,1.9,0.8,1.9,1.9v1.8c0,1-0.9,1.9-1.9,1.9c-1.8,0-2.6,1.3-1.6,2.8c0.5,0.9,0.2,2.1-0.7,2.6l-1.7,1c-0.8,0.5-1.8,0.2-2.3-0.6
	l-0.1-0.2c-0.9-1.6-2.4-1.6-3.3,0l-0.1,0.2c-0.5,0.8-1.5,1.1-2.3,0.6l-1.7-1c-0.9-0.5-1.2-1.7-0.7-2.6c0.9-1.6,0.2-2.8-1.6-2.8
	C2.8,14.8,2,13.9,2,12.9z"/>
</svg>
