<?xml version="1.0" encoding="utf-8"?>
<!-- Generator: Adobe Illustrator 27.3.1, SVG Export Plug-In . SVG Version: 6.00 Build 0)  -->
<svg version="1.1" id="Layer_1" xmlns="http://www.w3.org/2000/svg" xmlns:xlink="http://www.w3.org/1999/xlink" x="0px" y="0px"
	 viewBox="0 0 24 24" style="enable-background:new 0 0 24 24;" xml:space="preserve">
<style type="text/css">
	.st0{fill:none;stroke:#C2C0FF;stroke-width:1.5;stroke-linecap:round;stroke-linejoin:round;}
	.st1{fill:none;stroke:#C2C0FF;stroke-width:1.5;stroke-linecap:round;stroke-linejoin:round;stroke-miterlimit:10;}
</style>
<path class="st0" d="M9,22h6c5,0,7-2,7-7V9c0-5-2-7-7-7H9C4,2,2,4,2,9v6C2,20,4,22,9,22z"/>
<path class="st1" d="M15.6,18.5v-3.9"/>
<path class="st1" d="M15.6,7.4V5.5"/>
<path class="st1" d="M15.6,12.6c1.4,0,2.6-1.2,2.6-2.6S17,7.4,15.6,7.4S13,8.6,13,10C13,11.5,14.1,12.6,15.6,12.6z"/>
<path class="st1" d="M8.4,18.5v-2"/>
<path class="st1" d="M8.4,9.4V5.5"/>
<path class="st1" d="M8.4,16.6c1.4,0,2.6-1.2,2.6-2.6s-1.2-2.6-2.6-2.6S5.8,12.5,5.8,14S7,16.6,8.4,16.6z"/>
</svg>
