<?xml version="1.0" encoding="utf-8"?>
<!-- Generator: Adobe Illustrator 27.3.1, SVG Export Plug-In . SVG Version: 6.00 Build 0)  -->
<svg version="1.1" id="Layer_1" xmlns="http://www.w3.org/2000/svg" xmlns:xlink="http://www.w3.org/1999/xlink" x="0px" y="0px"
	 viewBox="0 0 24 24" style="enable-background:new 0 0 24 24;" xml:space="preserve">
<style type="text/css">
	.st0{fill:none;stroke:#F12727;stroke-width:1.5;stroke-linecap:round;stroke-linejoin:round;}
</style>
<path class="st0" d="M21,6c-3.3-0.3-6.7-0.5-10-0.5C9,5.5,7,5.6,5,5.8L3,6"/>
<path class="st0" d="M8.5,5l0.2-1.3C8.9,2.7,9,2,10.7,2h2.6c1.7,0,1.8,0.8,2,1.7L15.5,5"/>
<path class="st0" d="M18.9,9.1l-0.6,10.1c-0.1,1.6-0.2,2.8-3,2.8H8.8c-2.8,0-2.9-1.2-3-2.8L5.2,9.1"/>
<path class="st0" d="M10.3,16.5h3.3"/>
<path class="st0" d="M9.5,12.5h5"/>
</svg>
